HIERARCHY
ROOT Hips
{
	OFFSET 0.000000 100.481300 0.000000
	CHANNELS 6 Xposition Yposition Zposition Xrotation Yrotation Zrotation
	JOINT Spine
	{
		OFFSET -0.279200 12.230698 -2.892100
		CHANNELS 3 Xrotation Yrotation Zrotation
		JOINT Spine1
		{
			OFFSET -0.325700 14.269203 -3.374200
			CHANNELS 3 Xrotation Yrotation Zrotation
			JOINT Spine2
			{
				OFFSET -0.372300 16.307602 -0.352600
				CHANNELS 3 Xrotation Yrotation Zrotation
				JOINT Neck
				{
					OFFSET -0.418800 17.814194 8.416900
					CHANNELS 3 Xrotation Yrotation Zrotation
					JOINT Head
					{
						OFFSET 0.000000 7.031097 3.806800
						CHANNELS 3 Xrotation Yrotation Zrotation
						JOINT HeadTop_End
						{
							OFFSET 0.000000 24.646606 12.978600
							CHANNELS 3 Xrotation Yrotation Zrotation
							End Site
							{
								OFFSET 0.000000 27.854965 0.000000
							}
						}
					}
				}
				JOINT LeftShoulder
				{
					OFFSET 16.952999 14.495407 -7.737500
					CHANNELS 3 Xrotation Yrotation Zrotation
					JOINT LeftArm
					{
						OFFSET 9.308998 -2.777710 0.208600
						CHANNELS 3 Xrotation Yrotation Zrotation
						JOINT LeftForeArm
						{
							OFFSET 29.972298 0.000000 0.000000
							CHANNELS 3 Xrotation Yrotation Zrotation
							JOINT LeftHand
							{
								OFFSET 26.026505 0.000000 0.000000
								CHANNELS 3 Xrotation Yrotation Zrotation
								JOINT LeftHandThumb1
								{
									OFFSET 12.240501 -7.147949 9.207150
									CHANNELS 3 Xrotation Yrotation Zrotation
									JOINT LeftHandThumb2
									{
										OFFSET 4.138618 -2.389435 2.389433
										CHANNELS 3 Xrotation Yrotation Zrotation
										JOINT LeftHandThumb3
										{
											OFFSET 2.726913 -1.574387 1.574386
											CHANNELS 3 Xrotation Yrotation Zrotation
											JOINT LeftHandThumb4
											{
												OFFSET 3.941010 -2.275345 2.275342
												CHANNELS 3 Xrotation Yrotation Zrotation
												End Site
												{
													OFFSET -0.005798 5.087799 0.009903
												}
											}
										}
									}
								}
								JOINT LeftHandIndex1
								{
									OFFSET 24.424698 -1.985611 5.953459
									CHANNELS 3 Xrotation Yrotation Zrotation
									JOINT LeftHandIndex2
									{
										OFFSET 6.426697 0.000000 0.000000
										CHANNELS 3 Xrotation Yrotation Zrotation
										JOINT LeftHandIndex3
										{
											OFFSET 5.337898 0.000000 0.000000
											CHANNELS 3 Xrotation Yrotation Zrotation
											JOINT LeftHandIndex4
											{
												OFFSET 4.409401 0.000000 0.000000
												CHANNELS 3 Xrotation Yrotation Zrotation
												End Site
												{
													OFFSET 0.000000 4.409363 0.014373
												}
											}
										}
									}
								}
								JOINT LeftHandMiddle1
								{
									OFFSET 23.810104 0.000000 0.000000
									CHANNELS 3 Xrotation Yrotation Zrotation
									JOINT LeftHandMiddle2
									{
										OFFSET 7.176498 0.000000 0.000000
										CHANNELS 3 Xrotation Yrotation Zrotation
										JOINT LeftHandMiddle3
										{
											OFFSET 6.774902 0.000000 0.000000
											CHANNELS 3 Xrotation Yrotation Zrotation
											JOINT LeftHandMiddle4
											{
												OFFSET 5.403328 0.000000 0.000000
												CHANNELS 3 Xrotation Yrotation Zrotation
												End Site
												{
													OFFSET -0.027702 5.403244 0.017414
												}
											}
										}
									}
								}
								JOINT LeftHandRing1
								{
									OFFSET 22.908401 -0.839279 -6.020567
									CHANNELS 3 Xrotation Yrotation Zrotation
									JOINT LeftHandRing2
									{
										OFFSET 6.337502 0.000000 0.000000
										CHANNELS 3 Xrotation Yrotation Zrotation
										JOINT LeftHandRing3
										{
											OFFSET 5.779297 0.000000 0.000000
											CHANNELS 3 Xrotation Yrotation Zrotation
											JOINT LeftHandRing4
											{
												OFFSET 4.965698 0.000000 0.000000
												CHANNELS 3 Xrotation Yrotation Zrotation
												End Site
												{
													OFFSET 0.000000 4.965668 0.016186
												}
											}
										}
									}
								}
								JOINT LeftHandPinky1
								{
									OFFSET 20.037003 -1.530319 -10.950146
									CHANNELS 3 Xrotation Yrotation Zrotation
									JOINT LeftHandPinky2
									{
										OFFSET 5.254700 0.000000 0.000000
										CHANNELS 3 Xrotation Yrotation Zrotation
										JOINT LeftHandPinky3
										{
											OFFSET 4.810204 0.000000 0.000000
											CHANNELS 3 Xrotation Yrotation Zrotation
											JOINT LeftHandPinky4
											{
												OFFSET 3.647202 0.000000 0.000000
												CHANNELS 3 Xrotation Yrotation Zrotation
												End Site
												{
													OFFSET 0.000000 3.647186 0.011889
												}
											}
										}
									}
								}
							}
						}
					}
				}
				JOINT RightShoulder
				{
					OFFSET -15.141001 14.495407 -7.737500
					CHANNELS 3 Xrotation Yrotation Zrotation
					JOINT RightArm
					{
						OFFSET -9.308998 -2.777710 0.208500
						CHANNELS 3 Xrotation Yrotation Zrotation
						JOINT RightForeArm
						{
							OFFSET -29.972300 0.000000 0.000000
							CHANNELS 3 Xrotation Yrotation Zrotation
							JOINT RightHand
							{
								OFFSET -26.026505 0.000000 0.000000
								CHANNELS 3 Xrotation Yrotation Zrotation
								JOINT RightHandThumb1
								{
									OFFSET -12.240601 -7.148026 9.207092
									CHANNELS 3 Xrotation Yrotation Zrotation
									JOINT RightHandThumb2
									{
										OFFSET -4.138618 -2.389435 2.389433
										CHANNELS 3 Xrotation Yrotation Zrotation
										JOINT RightHandThumb3
										{
											OFFSET -2.726974 -1.574417 1.574421
											CHANNELS 3 Xrotation Yrotation Zrotation
											JOINT RightHandThumb4
											{
												OFFSET -3.941010 -2.275345 2.275343
												CHANNELS 3 Xrotation Yrotation Zrotation
												End Site
												{
													OFFSET 0.005814 5.087799 0.009927
												}
											}
										}
									}
								}
								JOINT RightHandIndex1
								{
									OFFSET -24.424698 -1.985657 5.953444
									CHANNELS 3 Xrotation Yrotation Zrotation
									JOINT RightHandIndex2
									{
										OFFSET -6.426697 0.000000 0.000000
										CHANNELS 3 Xrotation Yrotation Zrotation
										JOINT RightHandIndex3
										{
											OFFSET -5.337898 0.000000 0.000000
											CHANNELS 3 Xrotation Yrotation Zrotation
											JOINT RightHandIndex4
											{
												OFFSET -4.409401 0.000000 0.000000
												CHANNELS 3 Xrotation Yrotation Zrotation
												End Site
												{
													OFFSET 0.000000 4.409363 0.014408
												}
											}
										}
									}
								}
								JOINT RightHandMiddle1
								{
									OFFSET -23.810097 0.000000 0.000000
									CHANNELS 3 Xrotation Yrotation Zrotation
									JOINT RightHandMiddle2
									{
										OFFSET -7.176498 0.000000 0.000000
										CHANNELS 3 Xrotation Yrotation Zrotation
										JOINT RightHandMiddle3
										{
											OFFSET -6.774902 0.000000 0.000000
											CHANNELS 3 Xrotation Yrotation Zrotation
											JOINT RightHandMiddle4
											{
												OFFSET -5.403328 0.000000 0.000000
												CHANNELS 3 Xrotation Yrotation Zrotation
												End Site
												{
													OFFSET 0.027702 5.403244 0.017457
												}
											}
										}
									}
								}
								JOINT RightHandRing1
								{
									OFFSET -22.908302 -0.839325 -6.020576
									CHANNELS 3 Xrotation Yrotation Zrotation
									JOINT RightHandRing2
									{
										OFFSET -6.337502 0.000000 0.000000
										CHANNELS 3 Xrotation Yrotation Zrotation
										JOINT RightHandRing3
										{
											OFFSET -5.779297 0.000000 0.000000
											CHANNELS 3 Xrotation Yrotation Zrotation
											JOINT RightHandRing4
											{
												OFFSET -4.965698 0.000000 0.000000
												CHANNELS 3 Xrotation Yrotation Zrotation
												End Site
												{
													OFFSET 0.000000 4.965668 0.016226
												}
											}
										}
									}
								}
								JOINT RightHandPinky1
								{
									OFFSET -20.037003 -1.530334 -10.950259
									CHANNELS 3 Xrotation Yrotation Zrotation
									JOINT RightHandPinky2
									{
										OFFSET -5.254700 0.000000 0.000000
										CHANNELS 3 Xrotation Yrotation Zrotation
										JOINT RightHandPinky3
										{
											OFFSET -4.810204 0.000000 0.000000
											CHANNELS 3 Xrotation Yrotation Zrotation
											JOINT RightHandPinky4
											{
												OFFSET -3.647202 0.000000 0.000000
												CHANNELS 3 Xrotation Yrotation Zrotation
												End Site
												{
													OFFSET 0.000000 3.647186 0.011917
												}
											}
										}
									}
								}
							}
						}
					}
				}
			}
		}
	}
	JOINT LeftUpLeg
	{
		OFFSET 15.427100 -6.655098 0.678600
		CHANNELS 3 Xrotation Yrotation Zrotation
		JOINT LeftLeg
		{
			OFFSET 4.081073 -39.591068 13.024000
			CHANNELS 3 Xrotation Yrotation Zrotation
			JOINT LeftFoot
			{
				OFFSET -4.081074 -37.707932 -15.979700
				CHANNELS 3 Xrotation Yrotation Zrotation
				JOINT LeftToeBase
				{
					OFFSET 5.346399 -15.068900 20.645000
					CHANNELS 3 Xrotation Yrotation Zrotation
					JOINT LeftToe_End
					{
						OFFSET 2.754700 0.931300 11.300900
						CHANNELS 3 Xrotation Yrotation Zrotation
						End Site
						{
							OFFSET 0.000000 11.669021 0.000000
						}
					}
				}
			}
		}
	}
	JOINT RightUpLeg
	{
		OFFSET -15.569500 -6.655098 0.678600
		CHANNELS 3 Xrotation Yrotation Zrotation
		JOINT RightLeg
		{
			OFFSET -4.081825 -39.591045 13.023800
			CHANNELS 3 Xrotation Yrotation Zrotation
			JOINT RightFoot
			{
				OFFSET 4.081824 -37.707954 -15.979600
				CHANNELS 3 Xrotation Yrotation Zrotation
				JOINT RightToeBase
				{
					OFFSET -5.346400 -15.068900 20.645000
					CHANNELS 3 Xrotation Yrotation Zrotation
					JOINT RightToe_End
					{
						OFFSET -2.754700 0.931300 11.300900
						CHANNELS 3 Xrotation Yrotation Zrotation
						End Site
						{
							OFFSET 0.000000 11.669021 0.000000
						}
					}
				}
			}
		}
	}
}
MOTION
Frames: 4
Frame Time: 0.033333
0.539794 78.209846 0.295046 18.564374 -9.201276 0.511690 3.528326 -0.539251 1.780244 2.857215 -0.554532 0.861723 2.859396 -0.540882 0.863013 -12.196343 0.859238 0.869043 -8.375022 5.865104 -3.053366 -0.000000 -0.000001 -0.000000 2.661699 0.662909 -9.763903 -0.807590 -29.168470 -52.622793 -0.000089 -82.538116 -0.000072 -13.336919 -39.681886 31.525981 -1.840849 -9.507503 -9.240986 3.473453 2.492221 -2.905322 -4.638804 5.770471 5.875211 -0.000001 0.000000 0.000001 8.217927 -16.471811 -19.121381 0.381210 2.080573 -20.763321 0.131244 1.234282 -12.136936 0.000001 -0.000001 -0.000002 -0.927684 -0.847012 -14.376360 0.598247 2.581014 -26.096312 0.029267 0.585425 -5.722497 -0.000000 0.000000 0.000002 1.356995 7.504418 -16.606259 0.277270 1.782676 -17.680691 0.359277 2.021785 -20.150375 0.000000 0.000000 0.000000 -6.913181 27.081867 -18.113711 0.156608 1.346909 -13.264109 0.052134 0.780656 -7.641025 0.000002 -0.000001 0.000001 11.058063 15.939544 2.577355 -11.401182 32.348985 53.942908 0.000005 85.221937 0.000008 0.176128 21.182023 -38.137235 -13.305430 13.192576 18.458504 7.266067 -18.452576 0.855418 -5.509898 -5.505514 -14.745793 0.000000 -0.000000 -0.000000 -1.133367 7.722318 21.978785 0.344580 -1.759738 22.156785 0.039812 -0.608326 7.489053 -0.000001 -0.000001 -0.000002 0.230323 -3.673977 10.846750 0.518020 -2.136523 27.255612 0.283969 -1.602903 20.090909 -0.000000 0.000001 0.000001 3.045046 -11.091671 20.344902 0.219746 -1.415066 17.652194 0.259163 -1.533426 19.184688 -0.000000 0.000001 -0.000001 -7.764123 -22.694386 19.524033 0.192815 -1.327512 16.527209 0.063812 -0.769224 9.486510 0.000001 -0.000000 0.000002 -43.877866 -3.990021 21.690814 48.560210 -8.756918 1.169670 -22.525257 4.725924 -17.207555 -2.966127 -0.000002 -0.000000 0.000000 -0.000000 0.000000 -44.972359 2.039729 -15.740584 47.038246 2.975916 -4.451597 -18.009734 -5.183627 20.682813 -3.794307 0.000006 -0.000004 0.000000 0.000002 0.000000 
0.644415 78.451912 1.640133 18.639065 -9.405490 0.427183 3.492017 -0.323748 1.819063 2.776450 -0.380434 0.826682 2.775888 -0.362972 0.847530 -12.131138 0.729261 0.839287 -6.644104 5.110458 -2.954701 -0.000000 0.000000 -0.000000 2.462233 0.839776 -9.597469 -0.784697 -28.337645 -55.055477 0.000012 -79.335154 0.000010 -19.039070 -40.543952 25.704847 -1.709095 -9.362120 -9.219342 3.488848 2.547280 -2.867588 -4.649542 5.820617 5.968956 0.000001 0.000000 0.000001 8.130905 -16.338342 -19.181985 0.384538 2.089303 -20.854596 0.135252 1.252925 -12.323234 -0.000000 -0.000001 -0.000001 -0.921001 -0.794223 -14.451215 0.601077 2.586747 -26.158805 0.031166 0.604170 -5.906298 0.000000 -0.000001 -0.000001 1.356648 7.479259 -16.718978 0.278742 1.787264 -17.727783 0.367374 2.043705 -20.378549 -0.000000 0.000000 -0.000000 -6.858636 26.900709 -18.099699 0.159616 1.359508 -13.390505 0.057583 0.820302 -8.031549 0.000002 0.000001 0.000001 10.821301 15.624333 2.126713 -8.070038 35.488345 52.455709 0.000427 83.506897 -0.000406 -0.018769 17.628300 -39.759535 -13.191675 13.174635 18.333476 7.261189 -18.449917 0.824778 -5.265964 -5.546344 -14.776935 0.000001 0.000000 -0.000000 -1.103715 7.689091 21.900103 0.343661 -1.757488 22.126780 0.041107 -0.618055 7.609643 0.000001 -0.000000 -0.000001 0.231029 -3.676313 10.876487 0.517376 -2.135202 27.237488 0.285582 -1.607336 20.148848 0.000000 -0.000001 0.000001 3.040508 -11.090836 20.315252 0.226195 -1.435196 17.911951 0.260542 -1.537342 19.235727 -0.000001 -0.000002 0.000000 -7.669518 -22.701057 19.548281 0.195472 -1.336523 16.642429 0.067511 -0.790998 9.757732 -0.000001 0.000001 -0.000000 -42.519782 -3.449953 21.737518 48.308989 -8.636582 1.186598 -23.749604 4.771974 -16.903441 -2.966133 -0.000001 -0.000003 -0.000000 -0.000000 0.000000 -43.514657 1.393656 -15.824776 46.078054 3.571413 -4.510997 -19.115968 -5.235898 20.543420 -3.492027 -0.000002 0.000001 0.000000 -0.000000 0.000000 
0.782280 78.892700 3.204948 18.434257 -9.252913 0.407236 3.544530 -0.063172 1.779245 2.770679 -0.169870 0.746683 2.767373 -0.147597 0.780897 -11.877008 0.596373 0.525448 -4.734583 3.757593 -2.095217 0.000001 0.000000 -0.000000 2.260071 0.879740 -9.623739 1.096439 -28.110315 -56.837358 0.000011 -74.816895 -0.000009 -23.178648 -41.036569 21.107943 -1.577580 -9.216680 -9.198372 3.504169 2.602329 -2.829858 -4.660272 5.870715 6.062731 -0.000000 -0.000000 -0.000000 8.044136 -16.204748 -19.242127 0.387878 2.098031 -20.945899 0.139367 1.271560 -12.509509 0.000001 -0.000000 -0.000001 -0.914175 -0.741483 -14.526069 0.603903 2.592484 -26.221289 0.033139 0.622891 -6.090096 0.000000 -0.000000 0.000001 1.356203 7.454134 -16.831702 0.280203 1.791853 -17.774898 0.375562 2.065574 -20.606742 0.000001 0.000000 0.000000 -6.803905 26.719579 -18.085197 0.162625 1.372104 -13.516914 0.063315 0.859894 -8.422067 -0.000001 0.000003 -0.000000 10.571485 15.606057 1.505943 -4.385722 38.513244 51.965739 -0.000042 79.365815 0.000044 0.262731 19.406330 -43.588454 -13.077842 13.156408 18.208676 7.256368 -18.447304 0.794043 -5.011605 -5.585444 -14.808861 0.000000 -0.000000 -0.000001 -1.074175 7.655811 21.821438 0.342728 -1.755226 22.096794 0.042445 -0.627777 7.730241 -0.000001 -0.000000 0.000003 0.231762 -3.678628 10.906223 0.516676 -2.133910 27.219393 0.287216 -1.611758 20.206780 0.000000 -0.000001 -0.000002 3.035961 -11.089983 20.285619 0.232757 -1.455289 18.171686 0.261888 -1.541270 19.286777 0.000001 0.000000 -0.000001 -7.574942 -22.707714 19.572588 0.198176 -1.345498 16.757627 0.071331 -0.812760 10.028939 0.000003 0.000000 -0.000001 -40.755114 -2.519170 21.455139 47.588250 -8.724977 1.239887 -24.822381 4.573021 -16.383775 -2.966119 0.000002 0.000006 -0.000000 -0.000000 0.000000 -41.386876 0.487630 -16.257409 44.758557 4.327753 -4.573799 -20.279988 -5.169453 20.393403 -2.928399 0.000008 0.000003 -0.000000 0.000000 0.000000 
0.906439 79.471855 4.870152 18.314985 -8.454003 0.348653 3.735079 0.171383 1.727371 2.853545 0.000001 0.599392 2.847737 0.029541 0.647816 -11.732152 0.386883 0.072648 -3.061902 1.758172 -0.623202 -0.000000 0.000000 0.000000 2.036916 0.613997 -9.626998 2.063007 -29.063691 -59.375087 -0.000035 -68.344813 -0.000041 -27.826360 -41.700600 16.544906 -1.446301 -9.071164 -9.178052 3.519411 2.657464 -2.792161 -4.670990 5.920742 6.156543 0.000001 -0.000000 0.000000 7.957660 -16.071015 -19.301799 0.391217 2.106758 -21.037189 0.143529 1.290185 -12.695795 -0.000000 0.000000 -0.000002 -0.907225 -0.688770 -14.600938 0.606721 2.598212 -26.283772 0.035147 0.641618 -6.273908 -0.000001 -0.000001 -0.000000 1.355631 7.429017 -16.944429 0.281709 1.796439 -17.821975 0.383805 2.087426 -20.834932 0.000002 -0.000001 -0.000000 -6.748937 26.538439 -18.070208 0.165663 1.384675 -13.643328 0.069312 0.899457 -8.812608 -0.000001 0.000001 -0.000001 10.216784 15.810322 1.298782 -2.370853 40.230955 53.440165 -0.000001 72.994512 0.000008 0.169603 24.284309 -46.994352 -12.963893 13.137942 18.084029 7.252612 -18.445004 0.763351 -4.748155 -5.623068 -14.841508 -0.000000 -0.000000 0.000001 -1.044756 7.622458 21.742813 0.341832 -1.752936 22.066777 0.043747 -0.637523 7.850828 0.000000 0.000000 -0.000000 0.232491 -3.680944 10.935958 0.516013 -2.132595 27.201304 0.288849 -1.616173 20.264717 -0.000001 -0.000003 -0.000001 3.033141 -11.093703 20.255899 0.239392 -1.475375 18.431436 0.263280 -1.545189 19.337814 0.000001 0.000001 -0.000002 -7.480317 -22.714329 19.596958 0.200898 -1.354477 16.872801 0.075214 -0.834506 10.300206 0.000001 -0.000001 -0.000001 -39.271856 -1.510448 20.886341 46.485062 -9.211726 1.344937 -25.507917 4.108863 -15.677514 -2.966121 0.000001 -0.000003 -0.000000 -0.000001 -0.000000 -38.804292 -0.285106 -16.915662 43.258573 4.260369 -4.593757 -21.286271 -5.310544 20.718236 -2.623835 0.000005 -0.000007 -0.000000 0.000001 0.000000 
